<?xml version="1.0" standalone="no"?>
<!DOCTYPE svg PUBLIC "-//W3C//DTD SVG 20010904//EN"
 "http://www.w3.org/TR/2001/REC-SVG-20010904/DTD/svg10.dtd">
<svg version="1.0" xmlns="http://www.w3.org/2000/svg"
 width="121.000000pt" height="135.000000pt" viewBox="0 0 121.000000 135.000000"
 preserveAspectRatio="xMidYMid meet">
<metadata>
Created by potrace 1.16, written by Peter Selinger 2001-2019
</metadata>
<g transform="translate(0.000000,135.000000) scale(0.100000,-0.100000)"
stroke="none">
<path d="M555 1286 l-110 -64 -3 -516 c-1 -285 1 -516 5 -513 5 2 79 43 166
92 l157 89 0 488 0 488 -52 0 c-47 0 -66 -8 -163 -64z"/>
<path d="M0 610 l0 -610 605 0 605 0 0 610 0 610 -190 0 -190 0 0 -439 0 -439
-218 -126 c-121 -69 -222 -126 -225 -126 -4 0 -7 254 -7 565 l0 565 -190 0
-190 0 0 -610z"/>
</g>
</svg>
